<?xml version="1.0" standalone="no"?>
<!DOCTYPE svg PUBLIC "-//W3C//DTD SVG 20010904//EN"
 "http://www.w3.org/TR/2001/REC-SVG-20010904/DTD/svg10.dtd">
<svg version="1.0" xmlns="http://www.w3.org/2000/svg"
 width="512.000000pt" height="512.000000pt" viewBox="0 0 512.000000 512.000000"
 preserveAspectRatio="xMidYMid meet">
<metadata>
Created by potrace 1.11, written by Peter Selinger 2001-2013
</metadata>
<g transform="translate(0.000000,512.000000) scale(0.100000,-0.100000)"
fill="#000000" stroke="none">
<path d="M2410 4023 l0 -1097 -544 544 c-299 299 -548 546 -553 547 -4 2 -54
-43 -111 -100 l-102 -103 552 -552 552 -552 -1102 0 -1102 0 0 -150 0 -150
1095 0 1095 0 -549 -549 -549 -549 106 -106 106 -107 553 553 553 553 0 -1103
0 -1102 150 0 150 0 0 1102 0 1103 552 -553 552 -552 103 102 c57 57 102 106
100 111 -1 5 -247 253 -547 553 l-544 544 1097 0 1097 0 0 150 0 150 -1102 0
-1103 0 553 553 552 552 -103 103 c-56 56 -106 102 -110 102 -4 0 -252 -245
-552 -545 l-545 -545 0 1095 0 1095 -150 0 -150 0 0 -1097z"/>
</g>
</svg>
